<?xml version="1.0" encoding="UTF-8"?>
<svg id="_레이어_1" data-name="레이어 1" xmlns="http://www.w3.org/2000/svg" viewBox="0 0 800 800">
  <defs>
    <style>
      .cls-1 {
        fill: #00FF8C;
      }
    </style>
  </defs>
  <path class="cls-1" d="m714.68,82.64l-302.78,293.28c-14.97,14.5-19.45,36.74-11.26,55.91l50.45,118.1c14.18,33.19-10.17,70.08-46.27,70.08h-190.82c-40.18,0-64.15-44.79-41.86-78.22L481.19,78.22c22.29-33.44-1.68-78.22-41.86-78.22H50.31C22.53,0,0,22.53,0,50.31v699.38c0,27.79,22.53,50.31,50.31,50.31h655.68c40.18,0,64.15-44.79,41.86-78.22l-144.85-217.27c-25.18-37.77,8.59-86.94,52.88-77l82.78,18.58c31.45,7.06,61.33-16.86,61.33-49.09V118.78c0-44.44-53.4-67.06-85.32-36.14Z"/>
</svg>